<svg width="24" height="23" viewBox="0 0 24 23" fill="none" xmlns="http://www.w3.org/2000/svg">
<path d="M15.607 0C17.1756 0 18.6261 0.86928 19.4149 2.28223L23.1297 8.93759C23.9263 10.3642 23.9263 12.1264 23.1297 13.553L19.4149 20.2084C18.6261 21.6213 17.1756 22.4906 15.607 22.4906H8.12018C6.55144 22.4906 5.10107 21.6213 4.31235 20.2084L0.597248 13.553C-0.199084 12.1264 -0.199082 10.3642 0.59725 8.93759L4.31235 2.28223C5.10107 0.86928 6.55144 0 8.12018 0H15.607Z" fill="#20AD96"/>
<path d="M7.51611 16.4662L9.93393 13.947H15.5754C15.7892 13.947 15.9942 13.8585 16.1453 13.701C16.2965 13.5435 16.3813 13.3299 16.3813 13.1072V8.0688C16.3813 7.846 16.2965 7.6325 16.1453 7.475C15.9942 7.3175 15.7892 7.229 15.5754 7.229H8.32204C8.1083 7.229 7.90332 7.3175 7.75216 7.475C7.60103 7.6325 7.51611 7.846 7.51611 8.0688V16.4662Z" stroke="white" stroke-width="1.60647" stroke-linecap="round" stroke-linejoin="round"/>
</svg>
